<svg xmlns="http://www.w3.org/2000/svg" viewBox="0 0 17 18" width="17" height="18">
	<defs>
		<clipPath clipPathUnits="userSpaceOnUse" id="cp1">
			<path d="M-784 -3421L656 -3421L656 3435L-784 3435Z" />
		</clipPath>
	</defs>
	<style>
		tspan { white-space:pre }
		.shp0 { fill: white; } 
	</style>
	<g id="Home--Main" clip-path="url(#cp1)">
		<g id="Group 6">
			<g id="CTA">
				<g id="icon/navigation/arrow_forward_24px">
					<path id="icon/navigation/arrow_forward_24px" class="shp0" d="M1.97 10.08L13.27 10.08L8.34 15.37C7.94 15.79 7.94 16.49 8.34 16.91C8.73 17.33 9.37 17.33 9.76 16.91L16.43 9.77C16.82 9.35 16.82 8.66 16.43 8.24L9.77 1.09C9.58 0.89 9.33 0.77 9.06 0.77C8.79 0.77 8.53 0.89 8.35 1.09C7.95 1.51 7.95 2.2 8.35 2.62L13.27 7.92L1.97 7.92C1.42 7.92 0.96 8.4 0.96 9C0.96 9.6 1.42 10.08 1.97 10.08Z" />
				</g>
			</g>
		</g>
	</g>
</svg>